<?xml version="1.0" encoding="UTF-8"?>
<svg id="Capa_1" data-name="Capa 1" xmlns="http://www.w3.org/2000/svg" viewBox="0 0 768 768">
  <path d="M530.25,488.5c-1.07,9.04-8.2,17.6-17.59,18.41h-196.55c-8.78-1.92-15.2-8.52-16.14-17.63v-228.81c.57-8.19,6.25-15.11,14.11-17.39,52-2.23,104.42-.3,156.57-.98l6.51,2.32c7.55,8.51,16.46,15.91,24.32,24.22.6.63,3.3,3.98,3.21,4.51l-46.45,45.48v-55.12c0-.23.95-.58.75-1.12h-139.5v225h190.5v-85.88c6.15-5.07,11.83-13.28,17.99-18,.76-.58.95-1.45,2.26-1.12v106.12Z" fill="#fff"/>
  <path d="M397.5,452.88c.65-13.79-.15-27.88,2.26-41.46l98.72-98.74,39.11,39.33-100.71,100.86h-39.38ZM505.01,344.61c-1.27-1.28-4.23-6.45-6.26-5.41l-80.68,80.68c-.5.57-.3.91,0,1.49.38.73,10.94,11.3,11.68,11.68l82.14-80.65.28-1.46c-2.6-1.73-4.98-4.11-7.17-6.33Z" fill="#fff"/>
  <path d="M531.56,283.56c2.47-.39,6.18-.42,8.64,0,6.77,1.15,24.16,18.28,26.28,24.72,5.1,15.5-8.3,22.26-17.1,32.09l-39.36-39.36c6.43-5.3,12.94-16.07,21.54-17.44Z" fill="#fff"/>
  <rect x="354.75" y="320.13" width="81" height="19.5" fill="#fff"/>
  <polygon points="414 358.38 414.75 377.88 354.75 377.88 354.75 358.38 414 358.38" fill="#fff"/>
  <polygon points="374.25 436.38 374.25 455.5 373.13 456.63 354.75 456.63 354.75 436.38 374.25 436.38" fill="#fff"/>
  <polygon points="374.25 416.88 354.75 416.88 354.75 397.75 355.88 396.63 373.13 396.63 374.25 397.75 374.25 416.88" fill="#fff"/>
</svg>